<svg width="510" height="512" viewBox="0 0 510 512" fill="none" xmlns="http://www.w3.org/2000/svg">
<path d="M254 128C254 57.3076 311.308 0 382 0C452.693 0 510 57.3076 510 128C510 198.692 452.693 256 382 256H254V128Z" fill="#9266FF"/>
<path d="M64 256C28.6538 256 -1.2525e-06 227.346 -2.79753e-06 192C-4.34256e-06 156.654 28.6538 128 64 128L128 128L128 192C128 227.346 99.3462 256 64 256Z" fill="#FFFAFF"/>
<rect x="382" y="256" width="128" height="128" rx="64" fill="#E150E9"/>
<path d="M126 0H190C225.346 0 254 28.6538 254 64V128H190C154.654 128 126 99.3462 126 64V0Z" fill="#E150E9"/>
<path d="M190 256C154.654 256 126 227.346 126 192C126 156.654 154.654 128 190 128L254 128L254 256L190 256Z" fill="#F4C7FB"/>
<path d="M254 256H318C353.346 256 382 284.654 382 320V384H318C282.654 384 254 355.346 254 320V256Z" fill="#FFFAFF"/>
<path d="M510 384L510 448C510 483.346 481.346 512 446 512C410.654 512 382 483.346 382 448L382 384L510 384Z" fill="#F4C7FB"/>
</svg>
